<svg xmlns="http://www.w3.org/2000/svg" width="220" height="60"><path d="M41.921 41.473c0 5.084-1.805 9.417-5.417 13-3.61 3.583-7.961 5.375-13.05 5.375H17.49c-1.696 0-3.163-.605-4.399-1.816-1.236-1.21-1.854-2.663-1.854-4.358 0-1.694.606-3.147 1.818-4.358 1.212-1.21 2.666-1.815 4.363-1.815h5.962c1.696 0 3.138-.593 4.326-1.78 1.187-1.186 1.781-2.602 1.781-4.248v-12.42c0-1.695-.594-3.135-1.781-4.322-1.188-1.186-2.606-1.779-4.254-1.779-1.696 0-3.15.605-4.362 1.816-1.212 1.21-1.818 2.639-1.818 4.285 0 1.21.533 2.566 1.6 4.067 1.066 1.501 1.6 2.857 1.6 4.068 0 1.694-.607 3.147-1.819 4.357-1.211 1.21-2.665 1.816-4.362 1.816-2.763 0-5.09-1.768-6.98-5.302-1.6-2.954-2.4-5.956-2.4-9.006 0-5.084 1.806-9.43 5.417-13.037 3.612-3.607 7.962-5.411 13.052-5.411s9.452 1.804 13.087 5.41c3.635 3.608 5.453 7.954 5.453 13.038v12.42zM1.392 14.774C.425 11.547.017 8.178.017 8.178c-.13-.907.499-1.502 1.399-1.327 0 0 3.264.604 5.766 1.227 2.5.623 5.002 1.547 5.002 1.547S9.45 11.217 7.111 13.82c-2.338 2.603-3.542 6.27-3.542 6.27S2.359 18 1.392 14.774zm44.35 0c.967-3.226 1.374-6.595 1.374-6.595.131-.907-.498-1.502-1.398-1.327 0 0-3.265.604-5.766 1.227-2.502.623-5.003 1.547-5.003 1.547s2.735 1.591 5.074 4.194c2.338 2.603 3.542 6.27 3.542 6.27s1.21-2.09 2.177-5.316zm28.682 15.502c0 1.662-.594 3.087-1.783 4.274-1.189 1.188-2.615 1.781-4.279 1.781H60.09v5.913c0 1.663-.594 3.087-1.782 4.275-1.189 1.187-2.615 1.78-4.28 1.78-1.71 0-3.161-.593-4.35-1.78-1.188-1.188-1.782-2.612-1.782-4.275v-24.15c0-4.986 1.77-9.249 5.313-12.787C56.748 1.77 61.017 0 66.008 0h2.354c1.664 0 3.09.594 4.279 1.781 1.189 1.187 1.783 2.612 1.783 4.274s-.594 3.087-1.783 4.274c-1.189 1.188-2.615 1.781-4.279 1.781H66.08c-1.664 0-3.09.594-4.28 1.781-1.188 1.188-1.782 2.589-1.782 4.204v6.126h8.344c1.664 0 3.09.594 4.279 1.78 1.189 1.188 1.783 2.613 1.783 4.275m38.86.998c0 3.799-1.094 7.266-3.28 10.4-2.188 3.135-5.088 5.343-8.701 6.625v6.056c0 1.662-.594 3.087-1.783 4.274-1.188 1.187-2.615 1.781-4.279 1.781-1.664 0-3.09-.594-4.279-1.781-1.188-1.187-1.783-2.612-1.783-4.274v-6.056c-3.613-1.282-6.537-3.49-8.772-6.625-2.234-3.134-3.351-6.601-3.351-10.4V18.166c0-1.663.594-3.087 1.783-4.275 1.188-1.187 2.615-1.78 4.279-1.78 1.664 0 3.09.593 4.279 1.78 1.188 1.188 1.782 2.612 1.782 4.275v13.108c0 1.614.595 3.015 1.783 4.203 1.189 1.187 2.591 1.78 4.208 1.78 1.616 0 3.007-.581 4.172-1.745 1.165-1.163 1.747-2.576 1.747-4.238V18.166c0-1.663.594-3.087 1.783-4.275 1.188-1.187 2.615-1.78 4.279-1.78 1.664 0 3.102.593 4.314 1.78 1.213 1.188 1.819 2.612 1.819 4.275v13.108m38.648 10.97c0 1.663-.594 3.087-1.783 4.275-1.188 1.187-2.614 1.78-4.279 1.78h-11.695c-4.992 0-9.271-1.768-12.837-5.307-3.566-3.538-5.349-7.8-5.349-12.787 0-4.987 1.772-9.237 5.314-12.752 3.541-3.514 7.809-5.271 12.8-5.271h11.696c1.664 0 3.102.593 4.315 1.78 1.212 1.188 1.818 2.613 1.818 4.275 0 1.662-.594 3.087-1.783 4.274-1.188 1.188-2.614 1.781-4.279 1.781h-11.695c-1.664 0-3.091.582-4.279 1.745-1.189 1.164-1.783 2.553-1.783 4.168 0 1.615.594 3.016 1.783 4.203 1.188 1.187 2.591 1.781 4.207 1.781h11.696c1.664 0 3.102.593 4.315 1.781 1.212 1.187 1.818 2.612 1.818 4.274m39.072 0c0 1.663-.594 3.087-1.783 4.275-1.189 1.187-2.615 1.78-4.279 1.78H172.89c-4.945 0-9.2-1.768-12.765-5.307-3.566-3.538-5.349-7.8-5.349-12.787 0-4.987 1.771-9.237 5.313-12.752 3.542-3.514 7.785-5.271 12.73-5.271 4.992 0 9.271 1.757 12.837 5.271 3.565 3.515 5.348 7.765 5.348 12.752v12.04m-12.123-12.04c0-1.615-.583-3.004-1.748-4.167-1.165-1.164-2.579-1.746-4.243-1.746-1.664 0-3.079.582-4.243 1.745-1.165 1.164-1.747 2.553-1.747 4.168 0 1.662.582 3.075 1.747 4.239 1.164 1.163 2.555 1.745 4.172 1.745h5.99l.072-5.984m41.148 12.04c0 1.662-.594 3.086-1.783 4.274-1.188 1.187-2.614 1.78-4.279 1.78h-1.497c-4.992 0-9.271-1.768-12.837-5.307-3.566-3.538-5.348-7.8-5.348-12.787V6.055c0-1.662.606-3.087 1.818-4.274C197.316.594 198.754 0 200.418 0c1.664 0 3.09.594 4.279 1.781 1.188 1.187 1.782 2.612 1.782 4.274v6.056h7.488c1.665 0 3.091.593 4.279 1.78 1.189 1.188 1.783 2.612 1.783 4.275 0 1.662-.594 3.087-1.783 4.274-1.188 1.187-2.614 1.781-4.279 1.781h-7.559v5.984c0 1.615.594 3.016 1.783 4.203 1.189 1.187 2.591 1.781 4.208 1.781h1.568c1.665 0 3.091.593 4.279 1.781 1.189 1.187 1.783 2.612 1.783 4.274z" fill-rule="evenodd" fill="#3073ff"/></svg>