<svg height="55" width="202" xmlns="http://www.w3.org/2000/svg"><path d="m446.55054-827.15617h.729658v86.099609h-.729658z" fill="#fff"/><g fill="#000" transform="translate(-1 -1053.362183)"><path d="m32 1053.3622h65v10h-65z"/><g transform="translate(1 1053.3622)"><path d="m16 15v25h142v-10h-62v-5h56v-10c-45.33333 0-90.666667 0-136 0zm10 10h60v5h-60z"/><path d="m102 0v10h30v-4h-26v-2h24v-4z"/><path d="m137 0v10h30v-4h-26v-2h24v-4c-9.33333 0-18.66667 0-28 0z"/><path d="m172 0v10h30c0-3.3333333 0-6.6666667 0-10-10.27645 0-21.11422 0-30 0zm4 4h22v2h-22z"/><path d="m17 45v6h-17v4h21c0-2 0-4 0-6h17v-4c-7 0-14 0-21 0z"/></g><path d="m44 1098.3622h4v10h-4z"/><path d="m52 45v10h4v-6h22v6h4v-10c-10 0-20 0-30 0z" transform="translate(1 1053.3622)"/><path d="m87 1098.3622h80v10h-80z"/></g></svg>