<svg xmlns="http://www.w3.org/2000/svg" viewBox="0 0 50 36"><path d="M13.313 2.438c-.119.004-.257.03-.344.124l-.156.188a.502.502 0 0 0 .03.688l4.563 4.25a8.522 8.522 0 0 0-3.156 2.593H3.719c-.669 0-1.219.577-1.219 1.281v20.75c0 .705.55 1.25 1.219 1.25H46.28c.669 0 1.219-.545 1.219-1.25v-20.75c0-.704-.55-1.28-1.219-1.28H28.25a8.294 8.294 0 0 0-3.125-2.595l4.594-4.25a.502.502 0 0 0 .031-.687l-.188-.188c-.174-.19-.467-.176-.656 0l-5 4.657a8.844 8.844 0 0 0-2.625-.407c-.928 0-1.819.148-2.656.407l-5-4.657a.415.415 0 0 0-.313-.124zm8.25 11.093c4.166.044 9.347-.51 12.812 2.25 1.72 1.409 2.031 3.956 2.031 6.063 0 2.107-.325 4.609-2.031 6.031-3.193 2.662-8.36 2.469-12.688 2.469-4.328 0-9.525.193-12.718-2.469-1.707-1.422-2.031-3.924-2.031-6.031 0-2.107.467-4.638 2.03-6.063 3.725-2.755 8.232-2.248 12.595-2.25zm20.25 2c1.43 0 2.593 1.106 2.593 2.438 0 1.331-1.164 2.406-2.593 2.406-1.43 0-2.563-1.075-2.563-2.406 0-1.332 1.133-2.438 2.563-2.438zm0 7.969c1.43 0 2.593 1.075 2.593 2.406 0 1.332-1.164 2.407-2.593 2.407-1.43 0-2.563-1.075-2.563-2.407 0-1.331 1.133-2.406 2.563-2.406z" style="marker:none" color="#000" fill="#414042" overflow="visible"/></svg>