<svg xmlns="http://www.w3.org/2000/svg" viewBox="0 0 60 60.04"><defs><clipPath id="a"><path d="M30 5.52a18.38 18.38 0 0 0-18.2 16.3q-.06.49-.09 1a.28.28 0 0 1 0 .09v31.61l8.69-12.08v-18.6a9.6 9.6 0 1 1 9.6 9.52 7.18 7.18 0 0 1-2.76-.53l-5.3 7.49A18.34 18.34 0 1 0 30 5.52z" fill="none"/></clipPath><linearGradient id="b" x1="11.04" y1="75.21" x2="53.04" y2="14.33" gradientTransform="matrix(1 0 0 -1 -.69 68.87)" gradientUnits="userSpaceOnUse"><stop offset="0" stop-color="#009cff"/><stop offset=".18" stop-color="#009cff"/><stop offset=".38" stop-color="#009cff"/><stop offset=".4" stop-color="#0895ff"/><stop offset=".44" stop-color="#1c80ff"/><stop offset=".49" stop-color="#3f5fff"/><stop offset=".54" stop-color="#6e32ff"/><stop offset=".59" stop-color="#a100ff"/><stop offset=".78" stop-color="#ff3bde"/></linearGradient></defs><path d="M30 5.52a18.38 18.38 0 0 0-18.2 16.3q-.06.49-.09 1a.28.28 0 0 1 0 .09v31.61l8.69-12.08v-18.6a9.6 9.6 0 1 1 9.6 9.52 7.18 7.18 0 0 1-2.76-.53l-5.3 7.49A18.34 18.34 0 1 0 30 5.52z" fill="#009cff"/><g clip-path="url(#a)"><path d="M30.49 5.53c-5.36 4-8.24 10.17-9.15 16.59-.82 5.78-.62 12.28-.47 18.1a23.81 23.81 0 0 0 9.33 2.54 18.62 18.62 0 1 0 .29-37.23z" fill="url(#b)"/></g></svg>